<?xml version="1.0" encoding="utf-8"?>
<!-- Generator: Adobe Illustrator 28.4.1, SVG Export Plug-In . SVG Version: 6.00 Build 0)  -->
<svg version="1.1" id="Layer_1" xmlns="http://www.w3.org/2000/svg" xmlns:xlink="http://www.w3.org/1999/xlink" x="0px" y="0px"
	 viewBox="0 0 597.47 427.05" style="enable-background:new 0 0 597.47 427.05;" xml:space="preserve">
<style type="text/css">
	.st0{fill:#8476B6;}
	.st1{fill:#FFFFFF;}
	.st2{fill:#F38498;}
</style>
<g>
	<g>
		<path class="st0" d="M339.66,233.24c-6.2,13.62-12.25,27.32-18.66,40.84c-3.27,6.9-6.79,13.76-10.92,20.17
			c-4.8,7.45-11.75,9.86-18.87,7.61c-6.91-2.18-11-7.79-10.35-16.86c0.98-13.76,2.97-27.45,4.46-41.18
			c0.53-4.92,0.88-9.86,1.34-15.15c-7.91,2.91-15.38,5.52-22.69,8.51c-1.04,0.42-1.81,2.71-1.85,4.16
			c-0.46,17.98-0.83,35.96-1.04,53.95c-0.03,2.78,0.68,5.6,1.32,8.34c1.79,7.7-2.16,15.06-9.54,17.48
			c-7.18,2.36-15.21-0.92-17.32-8.45c-2.08-7.44-3.21-15.33-3.4-23.06c-0.32-12.8,0.45-25.63,0.75-38.45
			c0.04-1.76,0.01-3.52,0.01-6.22c-4.68,1.55-8.62,2.39-12.06,4.2c-1.47,0.77-2.29,3.46-2.71,5.43c-3.14,14.65-5.99,29.35-9.2,43.98
			c-0.81,3.7-2.36,7.3-3.97,10.76c-4.18,9.03-12.04,13.31-19.96,11.14c-7.56-2.07-11.83-9.78-10.59-19.72
			c1.18-9.41,2.58-18.8,4.06-28.17c0.59-3.77,0.35-6.96-2.05-10.32c-4.88-6.86-4.17-15.85,2.3-21.85c5.01-4.65,7.16-9.94,8.17-16.42
			c1.2-7.72,2.63-15.51,5.08-22.9c1.77-5.33,5.45-10.02,8.15-15.06c1.07-2,2.13-4.1,2.68-6.28c3.49-13.77,7.57-27.31,14.85-39.63
			c4.92-8.33,11.31-14.94,21.98-13.32c10.42,1.58,15.23,9.46,16.72,18.83c2.16,13.62,3.31,27.39,4.7,41.12
			c0.65,6.43,0.84,12.91,1.24,19.34c6.72,0.29,12.51-4,14.43-10.71c1.41-4.96,2.37-10.06,3.91-14.98
			c2.52-8.07,8.85-12.88,16.45-12.93c7.13-0.05,13.94,4.71,16.06,12.68c1.73,6.52,2.24,13.39,2.87,20.15
			c0.41,4.45,0.08,8.96,0.08,14.8c1.35-2,2.11-2.9,2.64-3.93c10.21-19.85,20.35-39.74,30.62-59.56c1.59-3.07,3.45-6.15,5.8-8.64
			c4.27-4.54,9.77-5.74,15.59-3.45c5.78,2.28,9.43,6.85,9.21,13.05c-0.39,10.96-1.05,21.96-2.52,32.81
			c-2.92,21.59-6.46,43.09-9.95,65.92c3.8-4.17,6.9-7.63,10.06-11.02c8.63-9.26,17.4-18.39,25.82-27.84
			c1.8-2.02,3.15-5.13,3.31-7.83c0.96-15.62,1.44-31.27,2.21-46.9c0.4-8.19,6.83-14.28,14.59-14.1c7.97,0.18,13.97,6.25,13.65,14.75
			c-1.54,39.92-1.86,79.91-7.33,119.59c-0.17,1.26-0.16,2.54-0.29,4.61c2.24-0.5,4.01-0.65,5.59-1.27
			c11.31-4.46,22.55-9.09,33.87-13.52c5.88-2.3,11.94-2.85,18.13-1.04c6.54,1.92,11.12,8.08,10.7,14.56
			c-0.43,6.69-5.41,12.88-12.32,12.96c-8.65,0.1-15.66,4.15-23.13,7.22c-14.35,5.91-28.79,11.53-44.32,13.48
			c-13.37,1.67-21.84-7.11-19.9-20.45c1.72-11.86,3.53-23.72,5.26-35.58c0.18-1.23,0.13-2.49-0.98-4.38
			c-8.22,10.17-16.29,20.46-24.71,30.47c-5.23,6.22-10.36,12.74-16.6,17.83c-11.21,9.13-25.88,3.61-27.18-10.71
			c-0.91-10.07,1.18-20.48,2.46-30.67c1.18-9.36,3.08-18.64,4.67-27.95C340.6,233.42,340.13,233.33,339.66,233.24z M232.47,185.42
			c-0.34-0.11-0.67-0.23-1.01-0.34c-0.46,1.36-1.05,2.69-1.35,4.09c-1.52,7.15-3.14,14.3-4.32,21.51c-0.29,1.77,0.43,4.99,1.57,5.47
			c2.95,1.26,6.4-1.55,6.31-4.89C233.42,202.64,232.89,194.03,232.47,185.42z"/>
		<path class="st0" d="M112.28,279c0.87-2.3,1.82-4.58,2.59-6.91c13.69-41.62,27.14-83.32,41.13-124.83
			c5.21-15.45,11.61-30.49,17.6-45.67c1.03-2.6,2.44-5.16,4.16-7.35c4.73-6,12.07-7.34,18.28-3.63c6.43,3.84,8.55,11.03,5.82,18.25
			c-8.44,22.26-17.23,44.39-24.97,66.89c-16.41,47.72-32.22,95.65-48.35,143.47c-3.35,9.94-6.87,19.83-10.71,29.59
			c-2.2,5.58-5.85,10.02-12.36,11.26c-6.57,1.25-13.15-1.08-15.3-7.32c-2.29-6.65-3.58-13.82-4.2-20.85
			c-1.63-18.39-2.43-36.86-3.99-55.26c-2.16-25.51-8.43-50.24-15.26-74.8c-6.47-23.26-13.55-46.35-20.41-69.5
			c-2.6-8.79-0.24-16.04,6.46-19.39c6.63-3.32,13.85-0.88,19.52,6.38c4.5,5.76,7.71,11.53,7.11,19.53c-0.36,4.84,2.49,9.9,3.75,14.9
			c8.11,32.3,16.39,64.55,24.13,96.94c2.19,9.18,2.8,18.74,4.13,28.12C111.7,278.86,111.99,278.93,112.28,279z"/>
		<path class="st0" d="M504.28,160.93c-7.86,2.05-15.37,4.09-22.92,5.95c-5.62,1.39-11.19,1.99-16.09-2.27
			c-8.49-7.39-6.22-20.76,4.52-24.07c13.36-4.12,26.93-7.6,40.45-11.2c17.22-4.59,34.43-9.22,51.73-13.45
			c7.55-1.85,13.59,1.41,16.65,7.84c2.77,5.82,1.15,12.8-4.35,16.99c-1.91,1.45-4.39,2.37-6.74,2.99
			c-9.02,2.37-18.08,4.61-27.16,6.73c-3.42,0.8-5.27,2.62-5.38,6.14c-0.61,19.12-1.45,38.24-1.76,57.37
			c-0.34,20.97,0,41.96-0.31,62.93c-0.41,28.14-1.14,56.28-1.75,84.41c-0.16,7.46-5.67,13.32-13.03,13.9
			c-7.56,0.59-14.5-4.94-15.05-12.98c-0.74-10.78-1.06-21.62-0.93-32.43c0.13-10.98,1.36-21.95,1.5-32.93
			c0.55-43.98,0.87-87.97,1.24-131.95C504.92,163.81,504.57,162.71,504.28,160.93z"/>
		<path class="st0" d="M254.99,359.65c-9.46,1.78-18.87,3.78-28.38,5.26c-9.2,1.44-18.46,2.48-27.72,3.44
			c-5.62,0.59-9.61-2.26-10.07-6.65c-0.51-4.86,2.23-7.38,8.27-8.41c33.14-5.63,66.23-11.53,99.39-17.01
			c17.24-2.85,34.59-5.06,51.91-7.46c5.59-0.78,8.84,1.84,9.74,7.41c0.18,1.14,0.42,2.28,0.72,3.4c1.54,5.83-0.76,9.86-6.7,11.01
			c-7.84,1.53-15.74,2.78-23.62,4.14c-23.09,4-45.21,11.24-66.93,19.82c-1.36,0.54-2.65,1.25-3.78,2.85
			c6.11-0.7,12.22-1.43,18.33-2.11c32.26-3.55,64.47-7.63,96.79-10.47c25.85-2.27,51.84-3.02,77.76-4.46
			c4.15-0.23,8.3-0.76,12.45-0.77c5.47-0.02,8.79,2.92,8.88,7.4c0.09,4.44-3.12,7.35-8.62,7.67c-29.24,1.69-58.54,2.72-87.72,5.2
			c-32.16,2.74-64.2,6.9-96.31,10.24c-14.22,1.48-28.5,2.47-42.75,3.6c-1.8,0.14-3.69-0.03-5.46-0.41
			c-3.85-0.81-6.62-2.93-7.72-6.94c-1.1-4.01,0.71-7.17,3.67-9.11c7.77-5.11,15.84-9.77,23.82-14.55c1.38-0.83,2.93-1.38,4.4-2.06
			C255.21,360.35,255.1,360,254.99,359.65z"/>
		<path class="st0" d="M344.16,46.22c4.81,0,9.63,0.11,14.43-0.03c5.36-0.16,8.69,1.94,9.33,6.2c0.61,4.05-2.18,8.16-7.17,8.57
			c-7.24,0.59-14.56,0.15-21.67,0.15c-2.11,8.42-0.74,10.25,6.93,10.53c5.49,0.2,10.97,0.54,16.45,0.93
			c5.07,0.36,8.17,3.48,7.93,7.8c-0.24,4.43-3.33,7.29-8.49,7.24c-5.82-0.06-11.63-0.76-17.45-0.75c-2.33,0-4.86,0.76-6.94,1.86
			c-5.3,2.8-10.31,1.2-11.68-4.65c-1.25-5.31-1.9-10.8-2.35-16.25c-0.72-8.78-1.26-17.59-1.5-26.4c-0.16-5.8,3.24-9.28,8.97-10.02
			c10.71-1.38,21.42-2.71,32.12-4.12c6.28-0.83,9.98,1.12,10.82,5.86c0.81,4.57-2.21,7.97-8.4,9.08
			c-7.04,1.26-14.12,2.31-21.18,3.45C344.26,45.84,344.21,46.03,344.16,46.22z"/>
		<path class="st0" d="M296.31,64.82c-11.09,0.38-11.1,0.38-10.27,11.14c0.11,1.49,0.41,2.97,0.52,4.46
			c0.3,4.23-1.53,7.14-5.68,8.18c-4.04,1.01-7.93-1.11-8.74-5.39c-1.12-5.86-1.59-11.86-2.05-17.82
			c-0.75-9.75-1.28-19.52-1.87-29.28c-0.24-3.94,3.81-8.94,7.55-9.4c3.87-0.47,7.83,2.34,8.5,6.78c0.64,4.25,0.59,8.62,0.66,12.94
			c0.04,3.06,1.45,4.23,4.37,3.85c0.5-0.06,0.99-0.13,1.49-0.18c8.79-0.97,8.49-0.93,7.48-9.62c-0.3-2.55,0.95-5.94,2.68-7.92
			c2.73-3.12,6.81-2.09,9.57,0.09c2.2,1.74,4.44,4.75,4.71,7.4c1.45,14.28,2.16,28.63,3.43,42.94c0.41,4.65-1.18,8.41-5.12,9.51
			c-4.3,1.21-8.5-0.94-9.49-5.7c-1.16-5.51-1.66-11.17-2.13-16.79C301.49,65.08,301.25,64.65,296.31,64.82z"/>
		<path class="st0" d="M225.46,42.7c-2.14,0-3.49,0.11-4.8-0.02c-3.82-0.39-6.1-2.64-6.63-6.34c-0.51-3.55,1.11-6.46,4.48-7.46
			c3.45-1.02,7.15-1.33,10.77-1.67c9.26-0.87,18.53-1.69,27.81-2.3c5.1-0.34,8.58,2.49,8.94,6.7c0.39,4.54-2.12,7.41-7.35,8.25
			c-1.97,0.32-3.96,0.54-5.94,0.68c-5.97,0.42-6.22,0.97-5.04,7.11c1.67,8.64,3.23,17.32,4.47,26.03c0.83,5.85-1.36,9.08-5.82,9.85
			c-4.6,0.79-7.72-1.86-8.89-7.87c-1.75-8.97-3.59-17.93-4.94-26.96C231.77,43.72,229.82,41.38,225.46,42.7z"/>
	</g>
</g>
<g>
	<path class="st1" d="M323.5,245.57c-6.2,13.62-12.25,27.32-18.66,40.84c-3.27,6.9-6.79,13.76-10.92,20.17
		c-4.8,7.45-11.75,9.86-18.87,7.61c-6.91-2.18-11-7.79-10.35-16.86c0.98-13.76,2.97-27.45,4.46-41.18
		c0.53-4.92,0.88-9.86,1.34-15.15c-7.91,2.91-15.38,5.52-22.69,8.51c-1.04,0.42-1.81,2.71-1.85,4.16
		c-0.46,17.98-0.83,35.96-1.04,53.95c-0.03,2.78,0.68,5.6,1.32,8.34c1.79,7.7-2.16,15.06-9.54,17.48
		c-7.18,2.36-15.21-0.92-17.32-8.45c-2.08-7.44-3.21-15.33-3.4-23.06c-0.32-12.8,0.45-25.63,0.75-38.45
		c0.04-1.76,0.01-3.52,0.01-6.22c-4.68,1.55-8.62,2.39-12.06,4.2c-1.47,0.77-2.29,3.46-2.71,5.43c-3.14,14.65-5.99,29.35-9.2,43.98
		c-0.81,3.7-2.36,7.3-3.97,10.76c-4.18,9.03-12.04,13.31-19.96,11.14c-7.56-2.07-11.83-9.78-10.59-19.72
		c1.18-9.41,2.58-18.8,4.06-28.17c0.59-3.77,0.35-6.96-2.05-10.32c-4.88-6.86-4.17-15.85,2.3-21.85c5.01-4.65,7.16-9.94,8.17-16.42
		c1.2-7.72,2.63-15.51,5.08-22.9c1.77-5.33,5.45-10.02,8.15-15.06c1.07-2,2.13-4.1,2.68-6.28c3.49-13.77,7.57-27.31,14.85-39.63
		c4.92-8.33,11.31-14.94,21.98-13.32c10.42,1.58,15.23,9.46,16.72,18.83c2.16,13.62,3.31,27.39,4.7,41.12
		c0.65,6.43,0.84,12.91,1.24,19.34c6.72,0.29,12.51-4,14.43-10.71c1.41-4.96,2.37-10.06,3.91-14.98
		c2.52-8.07,8.85-12.88,16.45-12.93c7.13-0.05,13.94,4.71,16.06,12.68c1.73,6.52,2.24,13.39,2.87,20.15
		c0.41,4.45,0.08,8.96,0.08,14.8c1.35-2,2.11-2.9,2.64-3.93c10.21-19.85,20.35-39.74,30.62-59.56c1.59-3.07,3.45-6.15,5.8-8.64
		c4.27-4.54,9.77-5.74,15.59-3.45c5.78,2.28,9.43,6.85,9.21,13.05c-0.39,10.96-1.05,21.96-2.52,32.81
		c-2.92,21.59-6.46,43.09-9.95,65.92c3.8-4.17,6.9-7.63,10.06-11.02c8.63-9.26,17.4-18.39,25.82-27.84c1.8-2.02,3.15-5.13,3.31-7.83
		c0.96-15.62,1.44-31.27,2.21-46.9c0.4-8.19,6.83-14.28,14.59-14.1c7.97,0.18,13.97,6.25,13.65,14.75
		c-1.54,39.92-1.86,79.91-7.33,119.59c-0.17,1.26-0.16,2.54-0.29,4.61c2.24-0.5,4.01-0.65,5.59-1.27
		c11.31-4.46,22.55-9.09,33.87-13.52c5.88-2.3,11.94-2.85,18.13-1.04c6.54,1.92,11.12,8.08,10.7,14.56
		c-0.43,6.69-5.41,12.88-12.32,12.96c-8.65,0.1-15.66,4.15-23.13,7.22c-14.35,5.91-28.79,11.53-44.32,13.48
		c-13.37,1.67-21.84-7.11-19.9-20.45c1.72-11.86,3.53-23.72,5.26-35.58c0.18-1.23,0.13-2.49-0.98-4.38
		c-8.22,10.17-16.29,20.46-24.71,30.47c-5.23,6.22-10.36,12.74-16.6,17.83c-11.21,9.13-25.88,3.61-27.18-10.71
		c-0.91-10.07,1.18-20.48,2.46-30.67c1.18-9.36,3.08-18.64,4.67-27.95C324.43,245.75,323.97,245.66,323.5,245.57z M216.31,197.75
		c-0.34-0.11-0.67-0.23-1.01-0.34c-0.46,1.36-1.05,2.69-1.35,4.09c-1.52,7.15-3.14,14.3-4.32,21.51c-0.29,1.77,0.43,4.99,1.57,5.47
		c2.95,1.26,6.4-1.55,6.31-4.89C217.26,214.96,216.73,206.36,216.31,197.75z"/>
	<path class="st1" d="M96.12,291.32c0.87-2.3,1.82-4.58,2.59-6.91c13.69-41.62,27.14-83.32,41.13-124.83
		c5.21-15.45,11.61-30.49,17.6-45.67c1.03-2.6,2.44-5.16,4.16-7.35c4.73-6,12.07-7.34,18.28-3.63c6.43,3.84,8.55,11.03,5.82,18.25
		c-8.44,22.26-17.23,44.39-24.97,66.89c-16.41,47.72-32.22,95.65-48.35,143.47c-3.35,9.94-6.87,19.83-10.71,29.59
		c-2.2,5.58-5.85,10.02-12.36,11.26c-6.57,1.25-13.15-1.08-15.3-7.32c-2.29-6.65-3.58-13.82-4.2-20.85
		c-1.63-18.39-2.43-36.86-3.99-55.26c-2.16-25.51-8.43-50.24-15.26-74.8c-6.47-23.26-13.55-46.35-20.41-69.5
		c-2.6-8.79-0.24-16.04,6.46-19.39c6.63-3.32,13.85-0.88,19.52,6.38c4.5,5.76,7.71,11.53,7.11,19.53c-0.36,4.84,2.49,9.9,3.75,14.9
		c8.11,32.3,16.39,64.55,24.13,96.94c2.19,9.18,2.8,18.74,4.13,28.12C95.54,291.19,95.83,291.26,96.12,291.32z"/>
	<path class="st1" d="M488.12,173.26c-7.86,2.05-15.37,4.09-22.92,5.95c-5.62,1.39-11.19,1.99-16.09-2.27
		c-8.49-7.39-6.22-20.76,4.52-24.07c13.36-4.12,26.93-7.6,40.45-11.2c17.22-4.59,34.43-9.22,51.73-13.45
		c7.55-1.85,13.59,1.41,16.65,7.84c2.77,5.82,1.15,12.8-4.35,16.99c-1.91,1.45-4.39,2.37-6.74,2.99
		c-9.02,2.37-18.08,4.61-27.16,6.73c-3.42,0.8-5.27,2.62-5.38,6.14c-0.61,19.12-1.45,38.24-1.76,57.37
		c-0.34,20.97,0,41.96-0.31,62.93c-0.41,28.14-1.14,56.28-1.75,84.41c-0.16,7.46-5.67,13.32-13.03,13.9
		c-7.56,0.59-14.5-4.94-15.05-12.98c-0.74-10.78-1.06-21.62-0.93-32.43c0.13-10.98,1.36-21.95,1.5-32.93
		c0.55-43.98,0.87-87.97,1.24-131.95C488.76,176.13,488.41,175.03,488.12,173.26z"/>
	<path class="st1" d="M238.82,371.98c-9.46,1.78-18.87,3.78-28.38,5.26c-9.2,1.44-18.46,2.48-27.72,3.44
		c-5.62,0.59-9.61-2.26-10.07-6.65c-0.51-4.86,2.23-7.38,8.27-8.41c33.14-5.63,66.23-11.53,99.39-17.01
		c17.24-2.85,34.59-5.06,51.91-7.46c5.59-0.78,8.84,1.84,9.74,7.41c0.18,1.14,0.42,2.28,0.72,3.4c1.54,5.83-0.76,9.86-6.7,11.01
		c-7.84,1.53-15.74,2.78-23.62,4.14c-23.09,4-45.21,11.24-66.93,19.82c-1.36,0.54-2.65,1.25-3.78,2.85
		c6.11-0.7,12.22-1.43,18.33-2.11c32.26-3.55,64.47-7.63,96.79-10.47c25.85-2.27,51.84-3.02,77.76-4.46
		c4.15-0.23,8.3-0.76,12.45-0.77c5.47-0.02,8.79,2.92,8.88,7.4c0.09,4.44-3.12,7.35-8.62,7.67c-29.24,1.69-58.54,2.72-87.72,5.2
		c-32.16,2.74-64.2,6.9-96.31,10.24c-14.22,1.48-28.5,2.47-42.75,3.6c-1.8,0.14-3.69-0.03-5.46-0.41c-3.85-0.81-6.62-2.93-7.72-6.94
		c-1.1-4.01,0.71-7.17,3.67-9.11c7.77-5.11,15.84-9.77,23.82-14.55c1.38-0.83,2.93-1.38,4.4-2.06
		C239.05,372.68,238.94,372.33,238.82,371.98z"/>
</g>
<g>
	<g>
		<path class="st2" d="M318.35,250.26c-6.2,13.62-12.25,27.32-18.66,40.84c-3.27,6.9-6.79,13.76-10.92,20.17
			c-4.8,7.45-11.75,9.86-18.87,7.61c-6.91-2.18-11-7.79-10.35-16.86c0.98-13.76,2.97-27.45,4.46-41.18
			c0.53-4.92,0.88-9.86,1.34-15.15c-7.91,2.91-15.38,5.52-22.69,8.51c-1.04,0.42-1.81,2.71-1.85,4.16
			c-0.46,17.98-0.83,35.96-1.04,53.95c-0.03,2.78,0.68,5.6,1.32,8.34c1.79,7.7-2.16,15.06-9.54,17.48
			c-7.18,2.36-15.21-0.92-17.32-8.45c-2.08-7.44-3.21-15.33-3.4-23.06c-0.32-12.8,0.45-25.63,0.75-38.45
			c0.04-1.76,0.01-3.52,0.01-6.22c-4.68,1.55-8.62,2.39-12.06,4.2c-1.47,0.77-2.29,3.46-2.71,5.43c-3.14,14.65-5.99,29.35-9.2,43.98
			c-0.81,3.7-2.36,7.3-3.97,10.76c-4.18,9.03-12.04,13.31-19.96,11.14c-7.56-2.07-11.83-9.78-10.59-19.72
			c1.18-9.41,2.58-18.8,4.06-28.17c0.59-3.77,0.35-6.96-2.05-10.32c-4.88-6.86-4.17-15.85,2.3-21.85c5.01-4.65,7.16-9.94,8.17-16.42
			c1.2-7.72,2.63-15.51,5.08-22.9c1.77-5.33,5.45-10.02,8.15-15.06c1.07-2,2.13-4.1,2.68-6.28c3.49-13.77,7.57-27.31,14.85-39.63
			c4.92-8.33,11.31-14.94,21.98-13.32c10.42,1.58,15.23,9.46,16.72,18.83c2.16,13.62,3.31,27.39,4.7,41.12
			c0.65,6.43,0.84,12.91,1.24,19.34c6.72,0.29,12.51-4,14.43-10.71c1.41-4.96,2.37-10.06,3.91-14.98
			c2.52-8.07,8.85-12.88,16.45-12.93c7.13-0.05,13.94,4.71,16.06,12.68c1.73,6.52,2.24,13.39,2.87,20.15
			c0.41,4.45,0.08,8.96,0.08,14.8c1.35-2,2.11-2.9,2.64-3.93c10.21-19.85,20.35-39.74,30.62-59.56c1.59-3.07,3.45-6.15,5.8-8.64
			c4.27-4.54,9.77-5.74,15.59-3.45c5.78,2.28,9.43,6.85,9.21,13.05c-0.39,10.96-1.05,21.96-2.52,32.81
			c-2.92,21.59-6.46,43.09-9.95,65.92c3.8-4.17,6.9-7.63,10.06-11.02c8.63-9.26,17.4-18.39,25.82-27.84
			c1.8-2.02,3.15-5.13,3.31-7.83c0.96-15.62,1.44-31.27,2.21-46.9c0.4-8.19,6.83-14.28,14.59-14.1c7.97,0.18,13.97,6.25,13.65,14.75
			c-1.54,39.92-1.86,79.91-7.33,119.59c-0.17,1.26-0.16,2.54-0.29,4.61c2.24-0.5,4.01-0.65,5.59-1.27
			c11.31-4.46,22.55-9.09,33.87-13.52c5.88-2.3,11.94-2.85,18.13-1.04c6.54,1.92,11.12,8.08,10.7,14.56
			c-0.43,6.69-5.41,12.88-12.32,12.96c-8.65,0.1-15.66,4.15-23.13,7.22c-14.35,5.91-28.79,11.53-44.32,13.48
			c-13.37,1.67-21.84-7.11-19.9-20.45c1.72-11.86,3.53-23.72,5.26-35.58c0.18-1.23,0.13-2.49-0.98-4.38
			c-8.22,10.17-16.29,20.46-24.71,30.47c-5.23,6.22-10.36,12.74-16.6,17.83c-11.21,9.13-25.88,3.61-27.18-10.71
			c-0.91-10.07,1.18-20.48,2.46-30.67c1.18-9.36,3.08-18.64,4.67-27.95C319.28,250.44,318.82,250.35,318.35,250.26z M211.16,202.44
			c-0.34-0.11-0.67-0.23-1.01-0.34c-0.46,1.36-1.05,2.69-1.35,4.09c-1.52,7.15-3.14,14.3-4.32,21.51c-0.29,1.77,0.43,4.99,1.57,5.47
			c2.95,1.26,6.4-1.55,6.31-4.89C212.11,219.66,211.58,211.05,211.16,202.44z"/>
		<path class="st2" d="M90.97,296.01c0.87-2.3,1.82-4.58,2.59-6.91c13.69-41.62,27.14-83.32,41.13-124.83
			c5.21-15.45,11.61-30.49,17.6-45.67c1.03-2.6,2.44-5.16,4.16-7.35c4.73-6,12.07-7.34,18.28-3.63c6.43,3.84,8.55,11.03,5.82,18.25
			c-8.44,22.26-17.23,44.39-24.97,66.89c-16.41,47.72-32.22,95.65-48.35,143.47c-3.35,9.94-6.87,19.83-10.71,29.59
			c-2.2,5.58-5.85,10.02-12.36,11.26c-6.57,1.25-13.15-1.08-15.3-7.32c-2.29-6.65-3.58-13.82-4.2-20.85
			c-1.63-18.39-2.43-36.86-3.99-55.26c-2.16-25.51-8.43-50.24-15.26-74.8c-6.47-23.26-13.55-46.35-20.41-69.5
			c-2.6-8.79-0.24-16.04,6.46-19.39c6.63-3.32,13.85-0.88,19.52,6.38c4.5,5.76,7.71,11.53,7.11,19.53c-0.36,4.84,2.49,9.9,3.75,14.9
			c8.11,32.3,16.39,64.55,24.13,96.94c2.19,9.18,2.8,18.74,4.13,28.12C90.39,295.88,90.68,295.95,90.97,296.01z"/>
		<path class="st2" d="M482.97,177.95c-7.86,2.05-15.37,4.09-22.92,5.95c-5.62,1.39-11.19,1.99-16.09-2.27
			c-8.49-7.39-6.22-20.76,4.52-24.07c13.36-4.12,26.93-7.6,40.45-11.2c17.22-4.59,34.43-9.22,51.73-13.45
			c7.55-1.85,13.59,1.41,16.65,7.84c2.77,5.82,1.15,12.8-4.35,16.99c-1.91,1.45-4.39,2.37-6.74,2.99
			c-9.02,2.37-18.08,4.61-27.16,6.73c-3.42,0.8-5.27,2.62-5.38,6.14c-0.61,19.12-1.45,38.24-1.76,57.37
			c-0.34,20.97,0,41.96-0.31,62.93c-0.41,28.14-1.14,56.28-1.75,84.41c-0.16,7.46-5.67,13.32-13.03,13.9
			c-7.56,0.59-14.5-4.94-15.05-12.98c-0.74-10.78-1.06-21.62-0.93-32.43c0.13-10.98,1.36-21.95,1.5-32.93
			c0.55-43.98,0.87-87.97,1.24-131.95C483.61,180.83,483.26,179.73,482.97,177.95z"/>
		<path class="st2" d="M233.67,376.67c-9.46,1.78-18.87,3.78-28.38,5.26c-9.2,1.44-18.46,2.48-27.72,3.44
			c-5.62,0.59-9.61-2.26-10.07-6.65c-0.51-4.86,2.23-7.38,8.27-8.41c33.14-5.63,66.23-11.53,99.39-17.01
			c17.24-2.85,34.59-5.06,51.91-7.46c5.59-0.78,8.84,1.84,9.74,7.41c0.18,1.14,0.42,2.28,0.72,3.4c1.54,5.83-0.76,9.86-6.7,11.01
			c-7.84,1.53-15.74,2.78-23.62,4.14c-23.09,4-45.21,11.24-66.93,19.82c-1.36,0.54-2.65,1.25-3.78,2.85
			c6.11-0.7,12.22-1.43,18.33-2.11c32.26-3.55,64.47-7.63,96.79-10.47c25.85-2.27,51.84-3.02,77.76-4.46
			c4.15-0.23,8.3-0.76,12.45-0.77c5.47-0.02,8.79,2.92,8.88,7.4c0.09,4.44-3.12,7.35-8.62,7.67c-29.24,1.69-58.54,2.72-87.72,5.2
			c-32.16,2.74-64.2,6.9-96.31,10.24c-14.22,1.48-28.5,2.47-42.75,3.6c-1.8,0.14-3.69-0.03-5.46-0.41
			c-3.85-0.81-6.62-2.93-7.72-6.94c-1.1-4.01,0.71-7.17,3.67-9.11c7.77-5.11,15.84-9.77,23.82-14.55c1.38-0.83,2.93-1.38,4.4-2.06
			C233.9,377.37,233.79,377.02,233.67,376.67z"/>
	</g>
</g>
</svg>
